PathFileType	4	(X/Y/Z)	Walk6.trc
DataRate	CameraRate	NumFrames	NumMarkers	Units	OrigDataRate	OrigDataStartFrame	OrigNumFrames
200.000000	200.000000	8	60	mm	200.000000	462	752
Frame#	Times		RCAR		LTH3		RTH2		LBHD		LWRU		LCAR		LUA1		LFA1		LElbow		RTB3		RFA1		RToe		RASI		LElbowM		RMT5		RTB2		C7		RLFC		LTH2		RBHD		RPSI		LWRR		RMT1		RWRU		RTB1		LASI		RTB4		STRN		T10		CLAV		RBack		LPSI		RLMAL		RElbow		LTH4		LLFC		RUA1		LTB4		LACR1		LTB3		RCAL		LFHD		RTH3		LCAL		LTB1		LMMAL		RElbowM		RTH1		LTB2		RFHD		RACR1		LMFC		RTH4		RMFC		LLMAL		LMT5		RWRR		LTH1		LToe		LMT1
			X1	Y1	Z1	X2	Y2	Z2	X3	Y3	Z3	X4	Y4	Z4	X5	Y5	Z5	X6	Y6	Z6	X7	Y7	Z7	X8	Y8	Z8	X9	Y9	Z9	X10	Y10	Z10	X11	Y11	Z11	X12	Y12	Z12	X13	Y13	Z13	X14	Y14	Z14	X15	Y15	Z15	X16	Y16	Z16	X17	Y17	Z17	X18	Y18	Z18	X19	Y19	Z19	X20	Y20	Z20	X21	Y21	Z21	X22	Y22	Z22	X23	Y23	Z23	X24	Y24	Z24	X25	Y25	Z25	X26	Y26	Z26	X27	Y27	Z27	X28	Y28	Z28	X29	Y29	Z29	X30	Y30	Z30	X31	Y31	Z31	X32	Y32	Z32	X33	Y33	Z33	X34	Y34	Z34	X35	Y35	Z35	X36	Y36	Z36	X37	Y37	Z37	X38	Y38	Z38	X39	Y39	Z39	X40	Y40	Z40	X41	Y41	Z41	X42	Y42	Z42	X43	Y43	Z43	X44	Y44	Z44	X45	Y45	Z45	X46	Y46	Z46	X47	Y47	Z47	X48	Y48	Z48	X49	Y49	Z49	X50	Y50	Z50	X51	Y51	Z51	X52	Y52	Z52	X53	Y53	Z53	X54	Y54	Z54	X55	Y55	Z55	X56	Y56	Z56	X57	Y57	Z57	X58	Y58	Z58	X59	Y59	Z59	X60	Y60	Z60

462	2.31	-338.09	882.97	297.2	-443.21	615	-173.54	-435.48	698.32	172.43	-541.73	1640	-112.32	-545.85	847.52	-295.1	-479.04	801.12	-290.94	-543.71	1284.1	-292.08	-566.84	979.85	-312.56	-577.58	1130.7	-310.38	-696.3	244.05	104.57	-479.63	1003.3	290.91	-721.81	45.139	130.95	-463.22	1039.6	131.26	-617.99	1126.8	-244.19	-802.23	84.475	170.98	-655.1	320	174.94	-571.78	1511.1	-35.524	-528.52	493.22	190.29	-393.13	721.83	-168.05	-538	1650.7	29.173	-670.34	1019.1	23.443	-483.96	856.25	-240.73	-755.96	58.627	103.81	-405.83	888.5	289.56	-555.49	363.66	126.79	-451.54	1034.3	-152.11	-624.89	302.25	114.32	-392.05	1252.3	-29.058	-674.87	1286.6	-29.694	-439.59	1424.6	-31.607	-650.03	1426.5	99.847	-668.98	1017.3	-54.024	-822.05	191.35	133.31	-546.29	1143.3	270.55	-460.27	704.54	-189.91	-431.97	514	-162.97	-520.92	1298.5	228.33	-396.31	288.98	-83.907	-498.01	1459.8	-201.75	-410.9	193.88	-83.861	-873.92	203.47	72.647	-362.67	1679.4	-75.481	-507.42	602.77	191.89	-524.01	26.103	-81.868	-383.06	378.18	-86.428	-438.95	88.265	-43.131	-568.66	1122.2	193.76	-510.85	793.31	190.18	-420.1	292.18	-155.32	-361.75	1683.9	0.73806	-497.13	1467	125.78	-424.1	521.42	-33.4	-506.62	697.32	195.22	-488.36	493.11	63.423	-465.12	67.959	-124.41	-367.73	20.915	-159.98	-351.35	918.59	241.35	-474.35	796.27	-202.43	-266.66	30.293	-91.059	-319.75	38.494	-75.652
463	2.315	-337.07	881.52	296.94	-440.32	615.18	-173.84	-428.24	700.19	172.88	-537.23	1640.8	-112.74	-536.39	848.28	-295.98	-469	802.65	-291.87	-537.58	1284.9	-292.75	-558.41	980.51	-313.67	-570.38	1131.3	-311.46	-686.13	245.06	105.14	-477.47	1003.3	290.13	-710.87	46.424	132.24	-458.57	1040.3	131.25	-611.08	1126.9	-245.48	-791.61	85.793	171.72	-645.28	321.33	175.38	-567.24	1511.8	-36.015	-519.24	494.51	190.72	-389.66	721.77	-168.09	-533.56	1651.5	28.768	-665.59	1019.7	22.833	-474.59	857.69	-241.59	-745.02	59.882	104.87	-404.7	887.78	289.18	-545.64	364.95	127.53	-446.75	1035	-152.18	-614.84	303.42	114.96	-387.39	1253.1	-29.083	-670.25	1287.2	-30.443	-435.07	1425.4	-31.876	-645.76	1427.1	99.076	-664.26	1018	-54.603	-811.91	192.35	133.58	-542.9	1143.7	269.48	-456.86	704.82	-190.2	-429.97	513.94	-163.16	-517.28	1299	227.79	-395.42	288.79	-84.051	-493.16	1460.5	-202.07	-410.39	193.73	-83.945	-863.77	203.96	72.76	-358.16	1680.1	-75.8	-499.39	603.93	192.22	-524.03	26.119	-81.872	-381.75	377.92	-86.642	-438.92	88.27	-43.14	-565.14	1122.9	192.69	-504.79	794.44	190.23	-419.14	291.99	-155.5	-357.28	1684.6	0.4206	-492.93	1467.7	125.51	-422.42	521.33	-33.533	-499.59	698.49	195.42	-478.51	494.4	64.016	-465.15	67.981	-124.41	-367.73	20.891	-160	-349.8	917.28	241.01	-470.33	796.66	-202.72	-266.66	30.291	-91.072	-319.79	38.511	-75.708
464	2.32	-336.11	880.08	296.73	-437.47	615.35	-174.1	-421.04	702.09	173.3	-532.73	1641.5	-113.12	-526.9	849.08	-296.84	-458.93	804.24	-292.8	-531.45	1285.7	-293.38	-549.94	981.2	-314.75	-563.16	1131.8	-312.51	-675.8	245.92	105.72	-475.34	1003.3	289.4	-699.48	47.575	133.44	-453.97	1041.1	131.27	-604.14	1127.1	-246.74	-780.63	86.823	172.42	-635.38	322.57	175.82	-562.71	1512.5	-36.475	-510.04	495.84	191.14	-386.24	721.69	-168.09	-529.12	1652.2	28.403	-660.86	1020.4	22.264	-465.18	859.16	-242.44	-733.65	60.967	105.87	-403.63	887.06	288.83	-535.72	366.25	128.29	-442.03	1035.7	-152.25	-604.7	304.52	115.62	-382.75	1253.8	-29.102	-665.64	1287.9	-31.177	-430.55	1426.1	-32.121	-641.51	1427.7	98.325	-659.57	1018.7	-55.145	-801.55	193.05	133.85	-539.53	1144.1	268.45	-453.49	705.08	-190.48	-428.01	513.88	-163.33	-513.64	1299.4	227.28	-394.59	288.61	-84.16	-488.31	1461.3	-202.37	-409.92	193.6	-84.004	-853.42	204.09	72.888	-353.67	1680.9	-76.081	-491.41	605.15	192.53	-524.05	26.137	-81.873	-380.51	377.68	-86.816	-438.89	88.274	-43.144	-561.64	1123.5	191.67	-498.75	795.6	190.26	-418.17	291.81	-155.66	-352.82	1685.3	0.13987	-488.74	1468.3	125.26	-420.72	521.23	-33.639	-492.6	699.71	195.61	-468.75	495.75	64.601	-465.17	68.004	-124.41	-367.74	20.869	-160.01	-348.31	915.98	240.71	-466.35	797.03	-202.99	-266.66	30.284	-91.082	-319.82	38.53	-75.768
465	2.325	-335.21	878.66	296.55	-434.68	615.52	-174.35	-413.89	704.03	173.68	-528.24	1642.3	-113.46	-517.37	849.93	-297.69	-448.82	805.88	-293.73	-525.32	1286.5	-293.98	-541.45	981.92	-315.8	-555.93	1132.5	-313.52	-665.31	246.62	106.3	-473.23	1003.4	288.71	-687.65	48.586	134.57	-449.43	1041.8	131.29	-597.17	1127.3	-247.95	-769.3	87.571	173.08	-625.43	323.72	176.25	-558.18	1513.2	-36.906	-500.93	497.2	191.55	-382.87	721.57	-168.07	-524.69	1653	28.076	-656.15	1021.1	21.737	-455.73	860.67	-243.28	-721.88	61.879	106.78	-402.61	886.37	288.52	-525.76	367.54	129.04	-437.35	1036.3	-152.32	-594.47	305.55	116.28	-378.14	1254.6	-29.119	-661.05	1288.5	-31.895	-426.03	1426.8	-32.344	-637.26	1428.3	97.594	-654.9	1019.3	-55.651	-790.96	193.44	134.12	-536.18	1144.5	267.46	-450.17	705.34	-190.73	-426.12	513.83	-163.48	-510	1299.9	226.78	-393.81	288.44	-84.236	-483.47	1462.1	-202.64	-409.48	193.47	-84.039	-842.87	203.86	73.034	-349.19	1681.6	-76.324	-483.47	606.41	192.83	-524.07	26.155	-81.873	-379.33	377.46	-86.953	-438.87	88.276	-43.14	-558.16	1124	190.68	-492.72	796.78	190.28	-417.2	291.64	-155.8	-348.38	1686.1	-0.10552	-484.55	1468.9	125.02	-419.01	521.13	-33.719	-485.64	700.96	195.79	-459.08	497.13	65.178	-465.18	68.026	-124.41	-367.75	20.848	-160.02	-346.88	914.69	240.45	-462.4	797.38	-203.25	-266.66	30.274	-91.087	-319.85	38.55	-75.834
466	2.33	-334.36	877.26	296.41	-431.96	615.68	-174.57	-406.78	705.97	174.03	-523.76	1643	-113.77	-507.81	850.83	-298.51	-438.7	807.57	-294.65	-519.19	1287.3	-294.55	-532.94	982.68	-316.82	-548.68	1133.1	-314.5	-654.66	247.18	106.87	-471.17	1003.4	288.06	-675.42	49.454	135.61	-444.91	1042.5	131.31	-590.17	1127.5	-249.12	-757.63	88.043	173.7	-615.4	324.75	176.68	-553.67	1513.8	-37.311	-491.89	498.58	191.94	-379.56	721.42	-168.02	-520.27	1653.7	27.784	-651.47	1021.8	21.253	-446.25	862.22	-244.1	-709.71	62.619	107.63	-401.64	885.69	288.24	-515.74	368.83	129.8	-432.73	1037	-152.39	-584.15	306.49	116.94	-373.54	1255.3	-29.138	-656.46	1289.2	-32.596	-421.52	1427.5	-32.546	-633.02	1428.9	96.882	-650.25	1019.9	-56.119	-780.16	193.54	134.39	-532.86	1144.9	266.5	-446.9	705.59	-190.95	-424.27	513.78	-163.61	-506.37	1300.3	226.3	-393.08	288.28	-84.284	-478.64	1462.9	-202.89	-409.06	193.35	-84.054	-832.13	203.28	73.198	-344.73	1682.3	-76.534	-475.58	607.71	193.11	-524.08	26.175	-81.87	-378.22	377.25	-87.06	-438.85	88.277	-43.131	-554.7	1124.6	189.73	-486.7	797.96	190.3	-416.25	291.46	-155.92	-343.94	1686.8	-0.31676	-480.38	1469.5	124.81	-417.3	521.01	-33.779	-478.71	702.25	195.97	-449.49	498.54	65.745	-465.19	68.047	-124.41	-367.75	20.829	-160.03	-345.5	913.41	240.23	-458.5	797.72	-203.48	-266.66	30.262	-91.089	-319.89	38.572	-75.902
467	2.335	-333.56	875.88	296.32	-429.3	615.83	-174.76	-399.73	707.93	174.34	-519.29	1643.7	-114.05	-498.22	851.77	-299.32	-428.54	809.32	-295.58	-513.07	1288.1	-295.08	-524.4	983.46	-317.8	-541.42	1133.7	-315.45	-643.86	247.6	107.42	-469.13	1003.4	287.45	-662.79	50.181	136.57	-440.43	1043.2	131.33	-583.13	1127.7	-250.23	-745.65	88.249	174.29	-605.31	325.67	177.1	-549.15	1514.5	-37.69	-482.92	499.97	192.32	-376.29	721.24	-167.97	-515.85	1654.4	27.526	-646.81	1022.5	20.815	-436.74	863.8	-244.92	-697.18	63.188	108.4	-400.73	885.03	287.99	-505.69	370.09	130.53	-428.14	1037.6	-152.48	-573.74	307.36	117.59	-368.97	1256	-29.159	-651.89	1289.8	-33.279	-417.02	1428.2	-32.729	-628.79	1429.5	96.191	-645.61	1020.6	-56.549	-769.14	193.35	134.66	-529.56	1145.3	265.58	-443.68	705.83	-191.16	-422.48	513.73	-163.72	-502.74	1300.7	225.83	-392.39	288.12	-84.306	-473.82	1463.7	-203.11	-408.67	193.24	-84.051	-821.2	202.35	73.379	-340.27	1683	-76.711	-467.73	609.03	193.4	-524.1	26.195	-81.866	-377.16	377.05	-87.139	-438.83	88.275	-43.116	-551.26	1125.2	188.81	-480.69	799.13	190.32	-415.32	291.3	-156.01	-339.51	1687.5	-0.4949	-476.21	1470.1	124.61	-415.59	520.89	-33.824	-471.8	703.55	196.17	-439.99	499.97	66.3	-465.19	68.069	-124.41	-367.76	20.812	-160.04	-344.18	912.15	240.07	-454.63	798.04	-203.7	-266.66	30.247	-91.086	-319.92	38.593	-75.972
468	2.34	-332.81	874.52	296.27	-426.72	615.97	-174.93	-392.73	709.89	174.62	-514.82	1644.4	-114.29	-488.6	852.76	-300.1	-418.37	811.12	-296.49	-506.95	1289	-295.58	-515.85	984.27	-318.75	-534.16	1134.4	-316.36	-632.92	247.87	107.95	-467.12	1003.5	286.88	-649.78	50.77	137.47	-435.95	1044	131.32	-576.06	1128	-251.3	-733.35	88.201	174.84	-595.14	326.46	177.5	-544.65	1515.2	-38.044	-474.01	501.35	192.69	-373.07	721.03	-167.91	-511.43	1655	27.297	-642.18	1023.2	20.421	-427.21	865.42	-245.71	-684.29	63.593	109.12	-399.86	884.4	287.78	-495.6	371.34	131.24	-423.6	1038.2	-152.6	-563.26	308.14	118.23	-364.42	1256.7	-29.184	-647.32	1290.4	-33.943	-412.52	1428.9	-32.893	-624.56	1430	95.519	-641	1021.2	-56.942	-757.91	192.86	134.93	-526.28	1145.7	264.68	-440.52	706.07	-191.33	-420.76	513.69	-163.81	-499.1	1301.1	225.38	-391.75	287.97	-84.307	-469	1464.4	-203.31	-408.3	193.13	-84.034	-810.09	201.08	73.577	-335.81	1683.7	-76.858	-459.93	610.37	193.68	-524.11	26.216	-81.86	-376.15	376.86	-87.198	-438.81	88.272	-43.096	-547.85	1125.7	187.92	-474.7	800.28	190.33	-414.41	291.13	-156.09	-335.09	1688.2	-0.64119	-472.04	1470.7	124.43	-413.9	520.77	-33.857	-464.91	704.86	196.38	-430.57	501.43	66.84	-465.19	68.09	-124.41	-367.76	20.796	-160.05	-342.93	910.9	239.96	-450.8	798.34	-203.9	-266.65	30.232	-91.08	-319.95	38.614	-76.04
469	2.345	-332.11	873.18	296.26	-424.21	616.11	-175.08	-385.78	711.84	174.87	-510.35	1645.1	-114.51	-478.95	853.8	-300.87	-408.19	812.97	-297.39	-500.85	1289.8	-296.05	-507.28	985.11	-319.67	-526.9	1135.1	-317.24	-621.85	248.01	108.46	-465.14	1003.5	286.35	-636.42	51.227	138.31	-431.49	1044.7	131.28	-568.98	1128.2	-252.33	-720.74	87.912	175.36	-584.9	327.12	177.9	-540.15	1515.8	-38.375	-465.17	502.73	193.04	-369.9	720.78	-167.85	-507.01	1655.7	27.097	-637.56	1023.9	20.072	-417.66	867.06	-246.49	-671.06	63.84	109.77	-399.04	883.79	287.61	-485.5	372.55	131.91	-419.09	1038.8	-152.74	-552.7	308.84	118.83	-359.88	1257.4	-29.213	-642.77	1291	-34.588	-408.02	1429.5	-33.041	-620.33	1430.6	94.867	-636.4	1021.7	-57.297	-746.47	192.1	135.2	-523.03	1146	263.82	-437.41	706.29	-191.48	-419.09	513.66	-163.88	-495.47	1301.5	224.95	-391.13	287.82	-84.291	-464.19	1465.2	-203.48	-407.95	193.02	-84.008	-798.79	199.49	73.792	-331.37	1684.4	-76.977	-452.16	611.71	193.96	-524.12	26.236	-81.851	-375.19	376.67	-87.238	-438.79	88.267	-43.073	-544.45	1126.3	187.05	-468.74	801.41	190.36	-413.55	290.98	-156.15	-330.67	1688.9	-0.75731	-467.87	1471.2	124.26	-412.23	520.65	-33.884	-458.05	706.18	196.61	-421.22	502.9	67.361	-465.19	68.11	-124.41	-367.77	20.783	-160.05	-341.73	909.66	239.92	-447.02	798.62	-204.08	-266.65	30.216	-91.071	-319.98	38.634	-76.104
